<?xml version="1.0" encoding="iso-8859-1"?>
<!-- Generator: Adobe Illustrator 19.0.0, SVG Export Plug-In . SVG Version: 6.00 Build 0)  -->
<svg version="1.1" id="Layer_1" xmlns="http://www.w3.org/2000/svg" xmlns:xlink="http://www.w3.org/1999/xlink" x="0px" y="0px"
	 viewBox="0 0 512 512" style="enable-background:new 0 0 512 512;" xml:space="preserve">
<circle style="fill:#FFDC00;" cx="256" cy="256" r="256"/>
<path style="fill:#FFC000;" d="M512,256c0-29.494-5.004-57.815-14.182-84.182L412,86L100.5,426l72.09,72.09
	C198.737,507.097,226.795,512,256,512C397.385,512,512,397.385,512,256z"/>
<rect x="100.5" y="99" style="fill:#590F38;" width="311.5" height="327"/>
<rect x="256.33" y="99" style="fill:#3A0725;" width="155.67" height="327"/>
<path style="fill:#FF3F84;" d="M139,202.083L139,202.083c-21.539,0-39-17.461-39-39V86.417h78v76.667
	C178,184.622,160.539,202.083,139,202.083z"/>
<path style="fill:#983262;" d="M217,201.667L217,201.667c-21.539,0-39-17.461-39-39V86h78v76.667
	C256,184.206,238.539,201.667,217,201.667z"/>
<path style="fill:#C11B5F;" d="M295,201.667L295,201.667c-21.539,0-39-17.461-39-39V86h78v76.667
	C334,184.206,316.539,201.667,295,201.667z"/>
<path style="fill:#662E57;" d="M373,201.667L373,201.667c-21.539,0-39-17.461-39-39V86h78v76.667
	C412,184.206,394.539,201.667,373,201.667z"/>
<path style="fill:#B9EAFF;" d="M228,426H112V273c0-32.032,25.967-58,58-58l0,0c32.032,0,58,25.967,58,58V426z"/>
<path style="fill:#A5E1EB;" d="M263.5,346h114c10.217,0,18.5-8.283,18.5-18.5v-94c0-10.217-8.283-18.5-18.5-18.5h-114
	c-10.217,0-18.5,8.283-18.5,18.5v94C245,337.717,253.283,346,263.5,346z"/>
<path style="fill:#78BED2;" d="M377.5,215h-57.167v131H377.5c10.217,0,18.5-8.283,18.5-18.5v-94C396,223.283,387.717,215,377.5,215z
	"/>
<g>
</g>
<g>
</g>
<g>
</g>
<g>
</g>
<g>
</g>
<g>
</g>
<g>
</g>
<g>
</g>
<g>
</g>
<g>
</g>
<g>
</g>
<g>
</g>
<g>
</g>
<g>
</g>
<g>
</g>
</svg>
