<svg id="Layer_1" data-name="Layer 1" xmlns="http://www.w3.org/2000/svg" viewBox="0 0 415.49 292.85"><defs><style>.cls-1{fill:#5f3a14;}.cls-2{fill:#ef5352;}.cls-3{fill:#fff;}</style></defs><title>cake (2)</title><polygon class="cls-1" points="415.49 292.85 0 292.85 0 125.51 207.73 88.13 415.49 125.51 415.49 292.85"/><path class="cls-2" d="M401.93,47.8v0.09L368.66,70.07,335.39,47.89V47.8c0-18.36,33.27-33.27,33.27-33.27S401.93,29.43,401.93,47.8Z" transform="translate(-48.25)"/><path class="cls-2" d="M303.81,47.8v0.09L256,70.07,208.19,47.89V47.8C208.19,21.4,256,0,256,0S303.81,21.4,303.81,47.8Z" transform="translate(-48.25)"/><path class="cls-2" d="M176.61,47.8v0.09L143.34,70.07,110.07,47.89V47.8c0-18.36,33.27-33.27,33.27-33.27S176.61,29.43,176.61,47.8Z" transform="translate(-48.25)"/><path class="cls-3" d="M419.39,47.89H92.61A44.49,44.49,0,0,0,48.25,92.25v33.27c28,0,33.34,19,52.61,26.33v45.79a16.63,16.63,0,0,0,33.27,0V151.84c19.26-7.32,24.64-26.33,52.61-26.33,34.62,0,34.62,29.15,69.24,29.15s34.62-29.15,69.24-29.15,34.63,29.15,69.26,29.15,34.63-29.15,69.26-29.15V92.25A44.49,44.49,0,0,0,419.39,47.89Z" transform="translate(-48.25)"/></svg>