<?xml version="1.0" encoding="iso-8859-1"?>
<!-- Generator: Adobe Illustrator 19.0.0, SVG Export Plug-In . SVG Version: 6.00 Build 0)  -->
<svg version="1.1" id="Layer_1" xmlns="http://www.w3.org/2000/svg" xmlns:xlink="http://www.w3.org/1999/xlink" x="0px" y="0px"
	 viewBox="0 0 512 512" style="enable-background:new 0 0 512 512;" xml:space="preserve">
<circle style="fill:#B9EAFF;" cx="256" cy="256" r="256"/>
<path style="fill:#35CCFF;" d="M512,256c0-6.212-0.234-12.368-0.669-18.469l-116.06-116.06l-11.692,11.632l-43.649-43.65
	l-5.146,58.854L275.93,89.453l-20.51,43.409l-43.92-43.92l-22.811,67.213l85.639,85.639L85,395l109.56,109.56
	c19.685,4.85,40.259,7.44,61.44,7.44C397.385,512,512,397.385,512,256z"/>
<path style="fill:#8E402E;" d="M402.5,372h-293V139.75c0-14.774,11.976-26.75,26.75-26.75h239.5c14.774,0,26.75,11.976,26.75,26.75
	V372z"/>
<path style="fill:#6B271C;" d="M402.5,139.75c0-14.774-11.976-26.75-26.75-26.75H256.333v259H402.5V139.75z"/>
<path style="fill:#AF6654;" d="M150.754,366.025c0-22.191-31.84-32.025-31.84-32.025s3.419,6.333-14.914,22
	c-7.079,6.049-5.75,16.25-1,18h46.499C150.311,371.487,150.754,368.808,150.754,366.025z"/>
<path style="fill:#BF916B;" d="M194.077,366.025c0-22.191-31.84-32.025-31.84-32.025s3.419,6.333-14.914,22
	c-7.079,6.049-5.75,16.25-1,18h46.499C193.633,371.487,194.077,368.808,194.077,366.025z"/>
<path style="fill:#AF6654;" d="M237.4,366.025c0-22.191-31.84-32.025-31.84-32.025s3.419,6.333-14.914,22
	c-7.078,6.049-5.75,16.25-1,18h46.499C236.956,371.487,237.4,368.808,237.4,366.025z"/>
<path style="fill:#BF916B;" d="M280.723,366.025c0-22.191-31.84-32.025-31.84-32.025s3.419,6.333-14.914,22
	c-7.079,6.049-5.75,16.25-1,18h46.499C280.279,371.487,280.723,368.808,280.723,366.025z"/>
<path style="fill:#9B7253;" d="M280.723,366.024c0-15.222-14.979-24.627-24.389-29.035V374h23.134
	C280.279,371.487,280.723,368.808,280.723,366.024z"/>
<path style="fill:#8E483A;" d="M324.046,366.025c0-22.191-31.84-32.025-31.84-32.025s3.419,6.333-14.914,22
	c-7.078,6.049-5.75,16.25-1,18h46.499C323.602,371.487,324.046,368.808,324.046,366.025z"/>
<path style="fill:#983262;" d="M345.846,105.025c0-22.191-31.84-32.025-31.84-32.025s3.419,6.333-14.914,22
	c-7.078,6.049-5.75,16.25-1,18h46.499C345.402,110.487,345.846,107.808,345.846,105.025z"/>
<path style="fill:#FF3F84;" d="M281.846,105.025c0-22.191-31.84-32.025-31.84-32.025s3.419,6.333-14.914,22
	c-7.079,6.049-5.75,16.25-1,18h46.499C281.402,110.487,281.846,107.808,281.846,105.025z"/>
<path style="fill:#983262;" d="M281.846,105.025c0-15.845-16.228-25.385-25.512-29.549V113h24.256
	C281.402,110.487,281.846,107.808,281.846,105.025z"/>
<path style="fill:#FF3F84;" d="M217.846,105.025c0-22.191-31.84-32.025-31.84-32.025s3.419,6.333-14.914,22
	c-7.079,6.049-5.75,16.25-1,18h46.499C217.402,110.487,217.846,107.808,217.846,105.025z"/>
<path style="fill:#8E483A;" d="M410.691,366.025c0-22.191-31.84-32.025-31.84-32.025s3.419,6.333-14.914,22
	c-7.079,6.049-5.75,16.25-1,18h46.499C410.247,371.487,410.691,368.808,410.691,366.025z"/>
<path style="fill:#9B7253;" d="M367.368,366.025c0-22.191-31.84-32.025-31.84-32.025s3.419,6.333-14.914,22
	c-7.079,6.049-5.75,16.25-1,18h46.499C366.925,371.487,367.368,368.808,367.368,366.025z"/>
<polygon style="fill:#F1333F;" points="427,395 427,371 85,371 85,395 238.5,395 238.5,453 214,453 214,468 298,468 298,453 
	273.5,453 273.5,395 "/>
<polygon style="fill:#AE283F;" points="427,395 427,371 256.333,371 256.333,468 298,468 298,453 273.5,453 273.5,395 "/>
<g>
</g>
<g>
</g>
<g>
</g>
<g>
</g>
<g>
</g>
<g>
</g>
<g>
</g>
<g>
</g>
<g>
</g>
<g>
</g>
<g>
</g>
<g>
</g>
<g>
</g>
<g>
</g>
<g>
</g>
</svg>
