<svg version="1.1" xmlns="http://www.w3.org/2000/svg" xmlns:xlink="http://www.w3.org/1999/xlink" x="0px" y="0px" viewBox="0 0 32 32" xml:space="preserve" width="32" height="32"><g class="nc-icon-wrapper" fill="#ffffff"><path fill="#ffffff" d="M16,22c7,0,14-1.7,14-5c0-3.1-6.4-4.8-13-5v-1.1c1.7-0.4,3-1.8,3-3.5c0-1.7-2.5-5-3.2-5.9l-0.8-1l-0.8,1 c-0.8,1-3.2,4.3-3.2,5.9c0,1.7,1.3,3.1,3,3.5V12c-6.6,0.2-13,1.9-13,5C2,20.3,9,22,16,22z"></path> <path data-color="color-2" fill="#ffffff" d="M2,20.7V27c0,3.3,7,5,14,5s14-1.7,14-5v-6.3c-3,2.4-8.8,3.3-14,3.3S5,23.1,2,20.7z"></path></g></svg>