<?xml version="1.0" encoding="utf-8"?>
<!-- Generator: Adobe Illustrator 19.2.0, SVG Export Plug-In . SVG Version: 6.00 Build 0)  -->
<svg version="1.1" id="Layer_1" xmlns="http://www.w3.org/2000/svg" xmlns:xlink="http://www.w3.org/1999/xlink" x="0px" y="0px"
	 viewBox="0 0 48 48" style="enable-background:new 0 0 48 48;" xml:space="preserve">
<style type="text/css">
	.st0{fill:#D37A2A;}
	.st1{fill:#DDBE99;}
	.st2{fill:#5E4027;}
	.st3{fill:#88C057;}
	.st4{fill:#EA9860;}
	.st5{fill:#87613E;}
</style>
<g>
	<path class="st0" d="M46,41H2c-0.6,0-1-0.4-1-1V20c0-3.1,1.4-6.2,3.7-8.5C7.8,8.5,12.4,7,18,7c0.1,0,0.3,0,0.4,0.1l28,12
		c0.4,0.2,0.6,0.5,0.6,0.9v20C47,40.6,46.6,41,46,41z"/>
	<rect x="1" y="30" class="st1" width="46" height="2"/>
	<path class="st2" d="M46.4,19.1l-28-12C18.3,7,18.1,7,18,7C12.4,7,7.8,8.5,4.7,11.5C2.4,13.8,1,16.9,1,20c0,0.6,0.4,1,1,1h7
		c1.1,0,2,0.9,2,2v7c0,1.7,1.3,3,3,3s3-1.3,3-3v-7c0-1.1,0.9-2,2-2h27c0.5,0,0.9-0.3,1-0.8C47.1,19.7,46.8,19.3,46.4,19.1z"/>
</g>
<g>
	<path class="st3" d="M19.4,10.8C19.3,10.8,19.3,10.8,19.4,10.8c-0.1-0.1-0.2-0.1-0.1-0.2c0.3-0.6,0.7-0.9,1.4-0.9
		c0.1,0,0.2,0.1,0.2,0.2S20.7,10,20.6,10c-0.5,0-0.9,0.2-1.1,0.7C19.5,10.7,19.4,10.8,19.4,10.8z"/>
	<path class="st4" d="M14.3,16.7c-0.2,0-0.5-0.1-0.6-0.3l0,0c-0.3-0.3-0.3-0.8-0.1-1.2l3.6-4.6c0.3-0.4,0.7-0.6,1.2-0.6
		c0.5,0,0.9,0.1,1.2,0.5c0.3,0.3,0.5,0.8,0.5,1.2c0,0.5-0.2,0.9-0.6,1.2l-4.6,3.6C14.6,16.7,14.5,16.7,14.3,16.7z"/>
	<path class="st5" d="M14.8,15.3c0,0-0.1,0-0.1,0l-0.5-0.5c-0.1-0.1-0.1-0.2,0-0.2c0.1-0.1,0.2-0.1,0.2,0l0.5,0.5
		c0.1,0.1,0.1,0.2,0,0.2C14.9,15.3,14.9,15.3,14.8,15.3z"/>
	<path class="st5" d="M17.4,12.4c0,0-0.1,0-0.1,0l-0.7-0.7c-0.1-0.1-0.1-0.2,0-0.2c0.1-0.1,0.2-0.1,0.2,0l0.7,0.7
		c0.1,0.1,0.1,0.2,0,0.2C17.5,12.4,17.4,12.4,17.4,12.4z"/>
	<path class="st5" d="M17,14.8c0,0-0.1,0-0.1,0l-0.6-0.6c-0.1-0.1-0.1-0.2,0-0.2c0.1-0.1,0.2-0.1,0.2,0l0.6,0.6
		c0.1,0.1,0.1,0.2,0,0.2C17.1,14.8,17.1,14.8,17,14.8z"/>
</g>
</svg>
