<?xml version="1.0" encoding="utf-8"?>
<!-- Generator: Adobe Illustrator 19.2.0, SVG Export Plug-In . SVG Version: 6.00 Build 0)  -->
<svg version="1.1" id="Capa_1" xmlns="http://www.w3.org/2000/svg" xmlns:xlink="http://www.w3.org/1999/xlink" x="0px" y="0px"
	 viewBox="0 0 55.9 55.9" style="enable-background:new 0 0 55.9 55.9;" xml:space="preserve">
<style type="text/css">
	.st0{fill:#F2ECD3;}
	.st1{fill:#D92F52;}
	.st2{fill:#E83A25;}
	.st3{fill:#76B25D;}
	.st4{fill:#F9395E;}
	.st5{fill:#B16E60;}
	.st6{fill:#C11E45;}
	.st7{fill:#8CC371;}
</style>
<g>
	<path class="st0" d="M11.9,24.9H44c0.9-1,1.4-2.1,1.4-3.3c0-1.6-1-3.1-2.7-4.4c0.1-0.4,0.2-0.7,0.2-1.1c0-2-1.6-3.9-4.2-5.2
		c0,0,0.1-11.7-9.5-10.8c0,0,3.1,5-1.2,5c-6,0.1-10.9,2.2-10.9,4.9c0,0.3,1.3,0.6,1.4,0.8C15.8,12.2,13,14,13,16
		c0,0.4,1.3,0.8,1.4,1.1c-1.7,1.3-4,2.8-4,4.4C10.4,22.8,11,23.9,11.9,24.9z"/>
</g>
<circle class="st1" cx="37.5" cy="31.4" r="5.3"/>
<path class="st2" d="M35.7,33.1c1.7,1.7,4.3,2,6.3,0.9c-0.2,0.4-0.5,0.8-0.9,1.2c-2.1,2.1-5.4,2.1-7.5,0c-2.1-2.1-2.1-5.4,0-7.5
	c0.4-0.4,0.7-0.6,1.2-0.9C33.7,28.8,34,31.4,35.7,33.1z"/>
<polygon class="st3" points="36.4,31.9 36.5,33.3 35.1,33.9 36.4,34.5 36.2,36 37.4,35.2 38.5,36.1 38.5,34.6 39.8,34.1 38.5,33.5 
	38.8,32 37.6,32.8 "/>
<circle class="st4" cx="36.4" cy="26.5" r="5.3"/>
<path class="st1" d="M35.8,28.8c2.3,0.6,4.7-0.4,5.9-2.4c0,0.5,0,1-0.2,1.4c-0.7,2.8-3.6,4.5-6.5,3.8c-2.8-0.7-4.5-3.6-3.8-6.5
	c0.1-0.5,0.3-0.9,0.6-1.3C31.9,26.1,33.4,28.2,35.8,28.8z"/>
<path class="st5" d="M16.3,18.1c0,0,0.1-0.1,0.1-0.1c0.2-0.2,0.4-0.5,0.6-0.7l1.7,1.7l2.6-0.7l0.3,1.1l-2,0.6l6.6,6.6l-0.8,0.8
	l-4.1-4.1v0.7h-1.1l0-1.9L16.3,18.1z"/>
<circle class="st4" cx="29" cy="22.9" r="5.3"/>
<path class="st1" d="M27.3,24.6c1.7,1.7,4.3,2,6.3,0.9c-0.2,0.4-0.5,0.8-0.9,1.2c-2.1,2.1-5.4,2.1-7.5,0s-2.1-5.4,0-7.5
	c0.4-0.4,0.7-0.6,1.2-0.9C25.3,20.3,25.6,22.9,27.3,24.6z"/>
<circle class="st4" cx="37.8" cy="37.3" r="5.3"/>
<path class="st1" d="M36,39.1c1.7,1.7,4.3,2,6.3,0.9c-0.2,0.4-0.5,0.8-0.9,1.2c-2.1,2.1-5.4,2.1-7.5,0s-2.1-5.4,0-7.5
	c0.4-0.4,0.7-0.6,1.2-0.9C34,34.7,34.3,37.3,36,39.1z"/>
<polygon class="st6" points="36.1,38.3 36.7,39.7 35.5,40.6 37,40.8 37.2,42.2 38.1,41.1 39.5,41.6 38.9,40.2 40.1,39.3 38.6,39.1 
	38.3,37.6 37.5,38.8 "/>
<circle class="st4" cx="28.7" cy="37.5" r="5.3"/>
<path class="st1" d="M27,39.2c1.7,1.7,4.3,2,6.3,0.9c-0.2,0.4-0.5,0.8-0.9,1.2c-2.1,2.1-5.4,2.1-7.5,0s-2.1-5.4,0-7.5
	c0.4-0.4,0.7-0.6,1.2-0.9C25,34.9,25.3,37.5,27,39.2z"/>
<polygon class="st6" points="27.7,38 27.8,39.5 26.4,40 27.7,40.6 27.4,42.1 28.7,41.3 29.8,42.2 29.7,40.8 31.1,40.3 29.8,39.6 
	30,38.2 28.8,38.9 "/>
<path class="st4" d="M12.8,28.1c0-0.6,0-1.2,0.1-1.8c0-0.2,0.1-0.4,0.1-0.6c0,0,0,0,0-0.1c0,0,0-0.1,0-0.1c0-0.3,0.1-0.6,0.2-0.8
	c0-0.1,0.1-0.3,0.1-0.4c0.4-1.6,1-3.2,1.9-4.6c0.7,0.3,1.3,0.7,1.9,1.2c1.7,1.7,2,4.4,0.8,6.4c0,0,0,0,0,0.1c0,0,0,0.1-0.1,0.1
	c0,0,0,0.1-0.1,0.1c0,0,0,0,0,0.1c0,0.1-0.1,0.1-0.1,0.2c0,0-0.1,0.1-0.1,0.1c0,0.1-0.1,0.1-0.1,0.2c0,0-0.1,0.1-0.1,0.1
	c0,0,0,0,0,0c0,0-0.1,0.1-0.1,0.1c-1.1,1.1-2.7,1.7-4.2,1.5c0-0.4-0.1-0.8-0.1-1.2C12.8,28.5,12.8,28.3,12.8,28.1z"/>
<path class="st1" d="M12.8,28.1c0-0.3,0-0.6,0-0.9c0.5,0.3,1.1,0.5,1.7,0.6c1.2,0.2,2.4,0,3.5-0.6c-0.1,0.2-0.2,0.4-0.4,0.6
	c0,0-0.1,0.1-0.1,0.1c0,0.1-0.1,0.1-0.1,0.2c0,0-0.1,0.1-0.1,0.1c0,0,0,0,0,0c0,0-0.1,0.1-0.1,0.1c-1.1,1.1-2.7,1.7-4.2,1.5
	c0-0.4-0.1-0.8-0.1-1.2C12.8,28.5,12.8,28.3,12.8,28.1z"/>
<path class="st6" d="M12.8,28.1c0-0.6,0-1.2,0.1-1.8c0-0.2,0.1-0.4,0.1-0.6l0.4,0.4l1.2-0.8l-0.2,1.4l1.3,0.7l-1.2,0.5l-0.1,0
	l0.1,1.5l-1.1-0.9l-0.5,0.3C12.8,28.5,12.8,28.3,12.8,28.1z"/>
<circle class="st4" cx="32.8" cy="30.6" r="5.3"/>
<path class="st1" d="M31.1,32.3c1.7,1.7,4.3,2,6.3,0.9c-0.2,0.4-0.5,0.8-0.9,1.2c-2.1,2.1-5.4,2.1-7.5,0c-2.1-2.1-2.1-5.4,0-7.5
	c0.4-0.4,0.7-0.6,1.2-0.9C29.1,28,29.4,30.6,31.1,32.3z"/>
<polygon class="st6" points="31.8,31.1 31.9,32.6 30.5,33.1 31.8,33.8 31.6,35.2 32.8,34.4 33.9,35.3 33.9,33.9 35.2,33.4 
	33.9,32.7 34.2,31.3 32.9,32.1 "/>
<circle class="st4" cx="23.5" cy="29.6" r="5.3"/>
<path class="st1" d="M21.8,31.3c1.7,1.7,4.3,2,6.3,0.9c-0.2,0.4-0.5,0.8-0.9,1.2c-2.1,2.1-5.4,2.1-7.5,0s-2.1-5.4,0-7.5
	c0.4-0.4,0.7-0.6,1.2-0.9C19.8,27,20.1,29.6,21.8,31.3z"/>
<polygon class="st6" points="22.1,28.6 21.2,29.8 19.8,29.3 20.4,30.6 19.4,31.6 20.8,31.8 21.1,33.2 22,32 23.4,32.4 22.7,31.1 
	23.8,30.1 22.4,30 "/>
<path class="st7" d="M18,16.2c1.6-1.5,3.5-2.6,5.5-3.3c1.3-0.5,2.6-0.7,3.9-0.9c1.9,0.2,3.7,0.6,4.8,1.7
	C32.2,13.8,27.1,18.1,18,16.2z"/>
</svg>
