<?xml version="1.0" encoding="utf-8"?>
<!-- Generator: Adobe Illustrator 19.2.0, SVG Export Plug-In . SVG Version: 6.00 Build 0)  -->
<svg version="1.1" id="Layer_1" xmlns="http://www.w3.org/2000/svg" xmlns:xlink="http://www.w3.org/1999/xlink" x="0px" y="0px"
	 viewBox="0 0 48 48" style="enable-background:new 0 0 48 48;" xml:space="preserve">
<style type="text/css">
	.st0{fill:#220D0C;}
	.st1{fill:#684237;}
	.st2{fill:#512C19;}
</style>
<g>
	<path class="st0" d="M46,41H2c-0.6,0-1-0.4-1-1V20c0-3.1,1.4-6.2,3.7-8.5C7.8,8.5,12.4,7,18,7c0.1,0,0.3,0,0.4,0.1l28,12
		c0.4,0.2,0.6,0.5,0.6,0.9v20C47,40.6,46.6,41,46,41z"/>
	<rect x="1" y="30" class="st1" width="46" height="2"/>
	<path class="st2" d="M46.4,19.1l-28-12C18.3,7,18.1,7,18,7C12.4,7,7.8,8.5,4.7,11.5C2.4,13.8,1,16.9,1,20c0,0.6,0.4,1,1,1h7
		c1.1,0,2,0.9,2,2v7c0,1.7,1.3,3,3,3s3-1.3,3-3v-7c0-1.1,0.9-2,2-2h27c0.5,0,0.9-0.3,1-0.8C47.1,19.7,46.8,19.3,46.4,19.1z"/>
</g>
</svg>
