<svg version="1.1" xmlns="http://www.w3.org/2000/svg" xmlns:xlink="http://www.w3.org/1999/xlink" x="0px" y="0px" viewBox="0 0 32 32" xml:space="preserve" width="32" height="32"><g class="nc-icon-wrapper" fill="#444444"><path fill="#444444" d="M16,0C7.2,0,0,7.2,0,16s7.2,16,16,16s16-7.2,16-16S24.8,0,16,0z M23.1,20.2c0.4,0.4,0.4,1,0,1.4l-1.4,1.4 c-0.4,0.4-1,0.4-1.4,0L16,18.8l-4.2,4.2c-0.4,0.4-1,0.4-1.4,0l-1.4-1.4c-0.4-0.4-0.4-1,0-1.4l4.2-4.2l-4.2-4.2c-0.4-0.4-0.4-1,0-1.4 l1.4-1.4c0.4-0.4,1-0.4,1.4,0l4.2,4.2l4.2-4.2c0.4-0.4,1-0.4,1.4,0l1.4,1.4c0.4,0.4,0.4,1,0,1.4L18.8,16L23.1,20.2z"></path></g></svg>