<?xml version="1.0" encoding="iso-8859-1"?>
<!-- Generator: Adobe Illustrator 19.0.0, SVG Export Plug-In . SVG Version: 6.00 Build 0)  -->
<svg version="1.1" id="Capa_1" xmlns="http://www.w3.org/2000/svg" xmlns:xlink="http://www.w3.org/1999/xlink" x="0px" y="0px"
	 viewBox="0 0 512 512" style="enable-background:new 0 0 512 512;" xml:space="preserve">
<path style="fill:#FFC0D0;" d="M30.227,512c-2.762,0-5-2.238-5-5v-52.716c0-48.916,39.887-88.712,88.915-88.712h85.701
	c49.027,0,88.915,39.796,88.915,88.712V507c0,2.762-2.239,5-5,5H30.227z"/>
<path style="fill:#FF6489;" d="M107.635,365.81c-8.835,0.641-17.314,2.578-25.251,5.616v74.739h25.251V365.81z"/>
<path style="fill:#F8D5AB;" d="M131.494,337v34.613c0,12.467,10.129,22.572,22.624,22.572c12.495,0,22.624-10.105,22.624-22.572V337
	H131.494z"/>
<path style="opacity:0.1;enable-background:new    ;" d="M46.733,507v-52.716c0-48.916,39.887-88.712,88.915-88.712h-21.506
	c-49.028,0-88.915,39.796-88.915,88.712V507c0,2.762,2.238,5,5,5h21.506C48.972,512,46.733,509.762,46.733,507z"/>
<path style="fill:#FBE24F;" d="M99.49,42.392c0,23.411,19.023,42.392,42.488,42.392h24.279c23.466,0,42.488-18.981,42.488-42.392
	l0,0C208.746,18.979,189.724,0,166.258,0h-24.279C118.513,0,99.49,18.979,99.49,42.392L99.49,42.392z"/>
<g>
	<path style="fill:#FF6489;" d="M225.852,369.741c-7.997-2.518-16.472-3.948-25.25-4.169v80.594h25.25V369.741z"/>
	<path style="fill:#FF6489;" d="M252.785,512v-79.622c0-3.141-2.583-5.712-5.739-5.712H61.189c-3.156,0-5.738,2.571-5.738,5.712V512
		H252.785z"/>
</g>
<path style="fill:#FF7697;" d="M78.364,457.29c-1.97,0-3.9-0.8-5.3-2.2c-1.4-1.4-2.2-3.33-2.2-5.3c0-1.971,0.8-3.91,2.2-5.311
	c1.399-1.39,3.33-2.189,5.3-2.189c1.979,0,3.91,0.8,5.309,2.189c1.391,1.4,2.191,3.34,2.191,5.311c0,1.97-0.8,3.91-2.191,5.3
	C82.274,456.49,80.344,457.29,78.364,457.29z"/>
<path style="fill:#F8D5AB;" d="M264.301,200.157c-1.866,0-3.68,0.223-5.421,0.632v41.401c0,8.229-0.956,16.234-2.758,23.915
	c2.548,0.94,5.303,1.456,8.179,1.456c12.994,0,23.529-10.485,23.529-23.421v-20.563C287.83,210.642,277.295,200.157,264.301,200.157
	z"/>
<path style="fill:#FAE4C8;" d="M258.88,242.19c0,57.726-46.903,104.522-104.762,104.522l0,0
	c-57.858,0-104.763-46.797-104.763-104.522v-67.073c0-57.726,46.904-104.522,104.763-104.522l0,0
	c57.858,0,104.762,46.797,104.762,104.522V242.19z"/>
<path style="fill:#F8D5AB;" d="M49.355,242.19v-41.401c-1.741-0.409-3.554-0.632-5.421-0.632c-12.994,0-23.528,10.484-23.528,23.42
	v20.563c0,12.936,10.534,23.421,23.528,23.421c2.877,0,5.632-0.516,8.18-1.456C50.312,258.425,49.355,250.419,49.355,242.19z"/>
<path style="opacity:0.1;enable-background:new    ;" d="M71.983,242.19v-67.073c0-53.912,40.911-98.284,93.448-103.914
	c-3.717-0.398-7.491-0.608-11.313-0.608c-57.858,0-104.763,46.797-104.763,104.522v67.073c0,57.726,46.904,104.522,104.763,104.522
	c3.822,0,7.597-0.21,11.313-0.608C112.894,340.475,71.983,296.103,71.983,242.19z"/>
<path style="fill:#FFCB00;" d="M154.118,70.595c-4.432,0-8.797,0.276-13.084,0.81V94.52c0,57.727,46.903,104.523,104.763,104.523
	c4.431,0,8.797-0.277,13.083-0.811v-23.115C258.88,117.392,211.977,70.595,154.118,70.595z"/>
<path style="fill:#FBE24F;" d="M161.554,70.86v3.187c0,55.23,42.939,100.452,97.326,104.257v-3.186
	C258.88,119.885,215.941,74.666,161.554,70.86z"/>
<path style="fill:#FFCB00;" d="M257.081,155.764c-7.36-39.217-36.669-70.711-74.722-81.313
	C189.723,113.664,219.029,145.161,257.081,155.764z"/>
<g>
	<path style="fill:#995C57;" d="M104.456,249.049c-4.143,0-7.5-3.357-7.5-7.5v-11.424c0-4.143,3.357-7.5,7.5-7.5
		c4.142,0,7.5,3.357,7.5,7.5v11.424C111.956,245.691,108.598,249.049,104.456,249.049z"/>
	<path style="fill:#995C57;" d="M203.78,249.049c-4.143,0-7.5-3.357-7.5-7.5v-11.424c0-4.143,3.357-7.5,7.5-7.5
		c4.142,0,7.5,3.357,7.5,7.5v11.424C211.28,245.691,207.922,249.049,203.78,249.049z"/>
</g>
<g>
	<path style="fill:#F6B245;" d="M154.118,311.397c-17.371,0-32.851-11.646-37.644-28.321c-1.145-3.982,1.155-8.136,5.137-9.28
		c3.982-1.145,8.136,1.157,9.279,5.136c2.956,10.284,12.508,17.466,23.228,17.466s20.271-7.182,23.227-17.466
		c1.145-3.98,5.297-6.281,9.28-5.136c3.98,1.145,6.28,5.299,5.136,9.28C186.968,299.751,171.488,311.397,154.118,311.397z"/>
	<path style="fill:#F6B245;" d="M161.999,263.682h-7.845c-6.408,0-11.621-5.213-11.621-11.621v-15.692c0-4.143,3.358-7.5,7.5-7.5
		c4.143,0,7.5,3.357,7.5,7.5v12.313h4.466c4.143,0,7.5,3.357,7.5,7.5C169.499,260.324,166.142,263.682,161.999,263.682z"/>
</g>
<path style="fill:#FFCB00;" d="M154.118,70.595c-57.858,0-104.763,46.797-104.763,104.522v9.684
	c15.508,9.051,33.553,14.242,52.813,14.242c57.859,0,104.763-46.797,104.763-104.523v-9.684
	C191.424,75.787,173.38,70.595,154.118,70.595z"/>
<path style="fill:#FBE24F;" d="M182.455,74.474c-9.014-2.522-18.516-3.879-28.337-3.879c-56.421,0-102.416,44.502-104.668,100.242
	c9.014,2.523,18.516,3.88,28.337,3.88C134.208,174.717,180.203,130.213,182.455,74.474z"/>
<g>
	<path style="fill:#FFCB00;" d="M152.568,70.613c-47.872,0.693-87.964,33.419-99.714,77.657
		C100.725,147.575,140.817,114.852,152.568,70.613z"/>
	<path style="fill:#FFCB00;" d="M141.978,0h24.279c8.085,0,15.641,2.254,22.074,6.164c3.949,4.117,6.168,8.706,6.168,13.551
		c0,17.693-29.42,32.035-65.713,32.035c-10.352,0-20.142-1.17-28.852-3.249c-0.289-1.996-0.445-4.034-0.445-6.109
		C99.49,18.979,118.513,0,141.978,0z"/>
</g>
<g>
	<path style="fill:#FBE24F;" d="M141.978,0h24.279c2.524,0,4.988,0.243,7.392,0.664c0.212,0.865,0.333,1.744,0.333,2.637
		c0,12.163-20.226,22.023-45.179,22.023c-8.84,0-17.081-1.242-24.046-3.382C111.992,8.862,125.945,0,141.978,0z"/>
	<path style="fill:#FBE24F;" d="M454.279,250.215h-20.571c-4.143,0-7.5,3.357-7.5,7.5s3.357,7.5,7.5,7.5h20.571
		c12.304,0,22.315,10.063,22.315,22.434s-10.011,22.436-22.315,22.436h-59.165c-17.91,0-32.483,14.616-32.483,32.581v16.286
		c0,4.143,3.358,7.5,7.5,7.5c4.143,0,7.5-3.357,7.5-7.5v-16.286c0-9.694,7.843-17.581,17.483-17.581h59.165
		c20.575,0,37.315-16.794,37.315-37.436C491.594,267.008,474.854,250.215,454.279,250.215z"/>
	<path style="fill:#FBE24F;" d="M402.763,280.491c0-4.143-3.358-7.5-7.5-7.5h-46.498c-13.072,0-23.708-10.691-23.708-23.833
		c0-13.141,10.636-23.831,23.708-23.831h16.693c4.142,0,7.5-3.357,7.5-7.5s-3.358-7.5-7.5-7.5h-16.693
		c-21.344,0-38.708,17.42-38.708,38.831c0,21.412,17.364,38.833,38.708,38.833h46.498
		C399.404,287.991,402.763,284.634,402.763,280.491z"/>
</g>
<path style="fill:#FFCB00;" d="M247.822,444.887c0.671-3.305,1.022-6.724,1.022-10.226c0-27.946-22.384-50.6-49.996-50.6
	s-49.996,22.653-49.996,50.6c0,3.502,0.354,6.921,1.023,10.226H247.822z"/>
<path style="opacity:0.1;enable-background:new    ;" d="M209.862,385.308c-3.545-0.807-7.227-1.246-11.014-1.246
	c-27.612,0-49.996,22.653-49.996,50.6c0,3.502,0.354,6.921,1.023,10.226h22.028c-0.669-3.305-1.022-6.724-1.022-10.226
	C170.881,410.547,187.553,390.387,209.862,385.308z"/>
<path style="fill:#19A9C1;" d="M147.043,431.346c-2.833,0-4.191,2.11-3.016,4.688l23.557,51.705
	c1.175,2.578,4.453,4.688,7.286,4.688h47.957c2.833,0,6.111-2.109,7.286-4.688l23.557-51.705c1.175-2.577-0.183-4.688-3.016-4.688
	H147.043z"/>
<polygon style="fill:#48D1D6;" points="177.125,431.346 187.736,492.426 209.959,492.426 220.572,431.346 "/>
<path style="fill:#82DDAB;" d="M413.362,444.887c0.67-3.305,1.022-6.724,1.022-10.226c0-27.946-22.384-50.6-49.996-50.6
	c-27.611,0-49.995,22.653-49.995,50.6c0,3.502,0.353,6.921,1.022,10.226H413.362z"/>
<path style="opacity:0.1;enable-background:new    ;" d="M375.561,385.346c-3.595-0.83-7.331-1.284-11.174-1.284
	c-27.611,0-49.995,22.653-49.995,50.6c0,3.502,0.353,6.921,1.022,10.226h22.348c-0.67-3.305-1.022-6.724-1.022-10.226
	C336.74,410.604,353.332,390.484,375.561,385.346z"/>
<path style="fill:#1E8574;" d="M312.583,431.346c-2.833,0-4.19,2.11-3.016,4.688l23.556,51.705c1.175,2.578,4.454,4.688,7.287,4.688
	h47.957c2.833,0,6.111-2.109,7.286-4.688l23.557-51.705c1.174-2.577-0.183-4.688-3.016-4.688H312.583z"/>
<polygon style="fill:#009E7A;" points="342.664,431.346 353.276,492.426 375.498,492.426 386.112,431.346 "/>
<path style="fill:#7F332D;" d="M330.835,444.887c0.67-3.305,1.021-6.724,1.021-10.226c0-27.946-22.384-50.6-49.996-50.6
	c-27.611,0-49.996,22.653-49.996,50.6c0,3.502,0.354,6.921,1.023,10.226H330.835z"/>
<path style="opacity:0.1;enable-background:new    ;" d="M293.091,385.359c-3.611-0.84-7.367-1.298-11.23-1.298
	c-27.611,0-49.996,22.653-49.996,50.6c0,3.502,0.354,6.921,1.023,10.226h22.461c-0.67-3.305-1.023-6.724-1.023-10.226
	C254.325,410.626,270.89,390.52,293.091,385.359z"/>
<path style="fill:#FF1B52;" d="M230.056,431.346c-2.833,0-4.19,2.11-3.016,4.688l23.557,51.705c1.174,2.578,4.453,4.688,7.286,4.688
	h47.957c2.833,0,6.111-2.109,7.286-4.688l23.557-51.705c1.175-2.577-0.183-4.688-3.016-4.688H230.056z"/>
<polygon style="fill:#FF3D6C;" points="260.137,431.346 270.749,492.426 292.971,492.426 303.584,431.346 "/>
<path style="fill:#7F332D;" d="M452.005,506.85c0,2.832-2.318,5.15-5.151,5.15H116.385c-2.833,0-5.151-2.318-5.151-5.15v-13.923
	c0-2.833,2.318-5.151,5.151-5.151h330.469c2.833,0,5.151,2.318,5.151,5.151V506.85z"/>
<path style="opacity:0.1;enable-background:new    ;" d="M139.164,506.85v-13.923c0-2.833,2.317-5.151,5.15-5.151h-27.93
	c-2.833,0-5.151,2.318-5.151,5.151v13.923c0,2.832,2.318,5.15,5.151,5.15h27.93C141.481,512,139.164,509.682,139.164,506.85z"/>
<g>
</g>
<g>
</g>
<g>
</g>
<g>
</g>
<g>
</g>
<g>
</g>
<g>
</g>
<g>
</g>
<g>
</g>
<g>
</g>
<g>
</g>
<g>
</g>
<g>
</g>
<g>
</g>
<g>
</g>
</svg>
