<?xml version="1.0" encoding="iso-8859-1"?>
<!-- Generator: Adobe Illustrator 19.0.0, SVG Export Plug-In . SVG Version: 6.00 Build 0)  -->
<svg version="1.1" id="Layer_1" xmlns="http://www.w3.org/2000/svg" xmlns:xlink="http://www.w3.org/1999/xlink" x="0px" y="0px"
	 viewBox="0 0 512 512" style="enable-background:new 0 0 512 512;" xml:space="preserve">
<circle style="fill:#590F38;" cx="256" cy="256" r="256"/>
<path style="fill:#47042C;" d="M511.969,258.48L366.002,112.514l-5.893,21.428l-88.758-88.758L156.094,428.976l82.417,82.417
	C244.292,511.784,250.12,512,256,512C396.556,512,510.635,398.721,511.969,258.48z"/>
<ellipse style="fill:#FFA1C3;" cx="256" cy="207" rx="150" ry="139"/>
<path style="fill:#FF81AE;" d="M406,207c0-76.664-66.978-138.829-149.667-138.996v277.992C339.022,345.829,406,283.664,406,207z"/>
<circle style="fill:#FFB344;" cx="256" cy="58" r="20"/>
<path style="fill:#FF9451;" d="M276,58c0-10.933-8.776-19.803-19.667-19.983v39.966C267.224,77.803,276,68.933,276,58z"/>
<path style="fill:#FFCF35;" d="M333.18,438H178.82c-15.641,0-29.153-10.934-32.416-26.23L104,213h304l-42.404,198.77
	C362.332,427.066,348.82,438,333.18,438z"/>
<path style="fill:#FFB344;" d="M256.333,213v225h76.846c15.641,0,29.153-10.934,32.416-26.23L408,213H256.333z"/>
<polygon style="fill:#EDB003;" points="344.906,213 316,398 327,398 355.906,213 "/>
<g>
	<polygon style="fill:#FFC000;" points="185,398 196,398 167.094,213 156.094,213 	"/>
	<polygon style="fill:#FFC000;" points="251.17,398 261.506,398 260.842,213 250.506,213 	"/>
	<polyline style="fill:#FFC000;" points="251.17,398 256.333,398 256.333,213 250.506,213 	"/>
</g>
<polygon style="fill:#EDB003;" points="260.842,213 256.333,213 256.333,398 261.506,398 "/>
<path style="fill:#FF3F84;" d="M381.424,130.751C354.614,92.957,308.456,68,256,68c-61.6,0-114.518,34.413-137.611,83.621
	c8.776,0.122,18.19-0.574,27.611-1.621c36-4,58,7,99,14s62-18,104-18C367.853,146,377.031,138.746,381.424,130.751z"/>
<path style="fill:#983262;" d="M256.333,68.005v97.172C290.241,166.406,311.049,146,349,146c18.853,0,28.031-7.254,32.424-15.249
	C354.67,93.037,308.651,68.111,256.333,68.005z"/>
<g>
</g>
<g>
</g>
<g>
</g>
<g>
</g>
<g>
</g>
<g>
</g>
<g>
</g>
<g>
</g>
<g>
</g>
<g>
</g>
<g>
</g>
<g>
</g>
<g>
</g>
<g>
</g>
<g>
</g>
</svg>
