<?xml version="1.0" encoding="iso-8859-1"?>
<!-- Generator: Adobe Illustrator 19.0.0, SVG Export Plug-In . SVG Version: 6.00 Build 0)  -->
<svg version="1.1" id="Layer_1" xmlns="http://www.w3.org/2000/svg" xmlns:xlink="http://www.w3.org/1999/xlink" x="0px" y="0px"
	 viewBox="0 0 512 512" style="enable-background:new 0 0 512 512;" xml:space="preserve">
<circle style="fill:#FFDC00;" cx="256" cy="256" r="256"/>
<path style="fill:#FFC000;" d="M512,256c0-23.066-3.069-45.413-8.789-66.673L478,164.116l-426.416,40.16l86.347,86.347
	l-58.825,84.998l132.54,132.541C226.054,510.678,240.872,512,256,512C397.385,512,512,397.385,512,256z"/>
<rect x="122.13" y="204.28" style="fill:#C0C0C0;" width="269.97" height="41.28"/>
<rect x="255.67" y="204.28" style="fill:#758F9B;" width="136.43" height="41.28"/>
<path style="fill:#4B7689;" d="M412.181,383.884H99.819c-16.635,0-30.121-13.485-30.121-30.121v-89.246
	c0-16.635,13.485-30.121,30.121-30.121h312.362c16.635,0,30.121,13.485,30.121,30.121v89.246
	C442.302,370.399,428.816,383.884,412.181,383.884z"/>
<path style="fill:#175D76;" d="M412.181,234.397H255.667v149.487h156.514c16.635,0,30.121-13.485,30.121-30.121v-89.246
	C442.302,247.882,428.816,234.397,412.181,234.397z"/>
<path style="fill:#35CCFF;" d="M236.704,349.302h166.883c6.595,0,11.941-5.346,11.941-11.941V280.92
	c0-6.595-5.346-11.941-11.941-11.941H236.704c-6.595,0-11.941,5.346-11.941,11.941v56.441
	C224.764,343.956,230.11,349.302,236.704,349.302z"/>
<path style="fill:#00BAFF;" d="M403.587,268.98h-147.92v80.322h147.92c6.594,0,11.94-5.346,11.94-11.941v-56.44
	C415.528,274.326,410.182,268.98,403.587,268.98z"/>
<path style="fill:#005C83;" d="M423.337,218.779H88.663c-30.19,0-54.663-24.474-54.663-54.663l0,0h444l0,0
	C478,194.305,453.526,218.779,423.337,218.779z"/>
<path style="fill:#00263F;" d="M255.667,164.116v54.663h167.67c30.19,0,54.663-24.474,54.663-54.663l0,0H255.667z"/>
<g>
	<circle style="fill:#B9EAFF;" cx="200" cy="277.98" r="9"/>
	<circle style="fill:#B9EAFF;" cx="168.33" cy="277.98" r="9"/>
	<circle style="fill:#B9EAFF;" cx="136.67" cy="277.98" r="9"/>
	<circle style="fill:#B9EAFF;" cx="105" cy="277.98" r="9"/>
	<circle style="fill:#B9EAFF;" cx="200" cy="310" r="9"/>
	<circle style="fill:#B9EAFF;" cx="168.33" cy="310" r="9"/>
	<circle style="fill:#B9EAFF;" cx="136.67" cy="310" r="9"/>
	<circle style="fill:#B9EAFF;" cx="105" cy="310" r="9"/>
</g>
<g>
</g>
<g>
</g>
<g>
</g>
<g>
</g>
<g>
</g>
<g>
</g>
<g>
</g>
<g>
</g>
<g>
</g>
<g>
</g>
<g>
</g>
<g>
</g>
<g>
</g>
<g>
</g>
<g>
</g>
</svg>
