<?xml version="1.0" encoding="utf-8"?>
<!-- Generator: Adobe Illustrator 19.2.0, SVG Export Plug-In . SVG Version: 6.00 Build 0)  -->
<svg version="1.1" id="Layer_1" xmlns="http://www.w3.org/2000/svg" xmlns:xlink="http://www.w3.org/1999/xlink" x="0px" y="0px"
	 viewBox="0 0 48 48" style="enable-background:new 0 0 48 48;" xml:space="preserve">
<style type="text/css">
	.st0{fill:#A98666;}
	.st1{fill:#F3CB7B;}
	.st2{fill:#8F4D31;}
	.st3{fill:#C9A06C;}
	.st4{fill:#B78456;}
	.st5{fill:#A56840;}
</style>
<g>
	<path class="st0" d="M46,41H2c-0.6,0-1-0.4-1-1V20c0-3.1,1.4-6.2,3.7-8.5C7.8,8.5,12.4,7,18,7c0.1,0,0.3,0,0.4,0.1l28,12
		c0.4,0.2,0.6,0.5,0.6,0.9v20C47,40.6,46.6,41,46,41z"/>
	<rect x="1" y="30" class="st1" width="46" height="2"/>
	<path class="st2" d="M46.4,19.1l-28-12C18.3,7,18.1,7,18,7C12.4,7,7.8,8.5,4.7,11.5C2.4,13.8,1,16.9,1,20c0,0.6,0.4,1,1,1h7
		c1.1,0,2,0.9,2,2v7c0,1.7,1.3,3,3,3s3-1.3,3-3v-7c0-1.1,0.9-2,2-2h27c0.5,0,0.9-0.3,1-0.8C47.1,19.7,46.8,19.3,46.4,19.1z"/>
</g>
<path class="st3" d="M15.6,11c0-0.1-0.1-0.1-0.1-0.2c-0.3-0.4-0.9-0.5-1.3-0.2c-0.3,0.2-0.5,0.7-0.3,1.1c-0.4,0-0.8,0.2-0.9,0.6
	c-0.1,0.4,0,0.8,0.3,1.1C13,13.6,12.9,14,13,14.4c0,0.1,0.1,0.2,0.1,0.3l0.9,1.2c0.1,0.1,0.1,0.1,0.2,0.2c0.4,0.3,1,0.2,1.3-0.2
	c0.1-0.2,0.2-0.4,0.2-0.5v-1.8l0.5-1.5L15.6,11z"/>
<path class="st4" d="M19.1,13.4c0.3-0.2,0.5-0.7,0.3-1.1c-0.1-0.4-0.5-0.7-0.9-0.6c0.1-0.4,0-0.8-0.3-1.1c-0.4-0.3-1-0.2-1.3,0.2
	c0,0.1-0.1,0.1-0.1,0.2l-1.1,1.6l1,0.9v1.8c0,0.2,0.1,0.4,0.2,0.5c0.3,0.4,0.9,0.5,1.3,0.2c0.1-0.1,0.2-0.1,0.2-0.2l0.9-1.2
	c0.1-0.1,0.1-0.2,0.1-0.3C19.6,14,19.4,13.6,19.1,13.4z"/>
<path class="st5" d="M17.3,12.7c-0.3,0-0.6-0.3-0.6-0.6v-0.8c0-0.1,0-0.3,0.1-0.4l-0.6-1l-0.5,2c0,0,0.4,1.9,0.5,1.9
	c0.3,0,0.5,0.2,0.5,0.5l0,0c0-0.5,0.4-0.9,0.9-0.9c0,0,0,0,0,0v-0.7H17.3L17.3,12.7z"/>
<g>
	<path class="st4" d="M16.2,13.9V10l-0.6,1c0.1,0.1,0.1,0.3,0.1,0.4c0,0,0,0.8,0,0.8c0,0.3-0.3,0.6-0.6,0.6h-0.3v0.7c0,0,0,0,0,0
		c0.5,0,0.9,0.4,0.9,0.9l0,0C15.7,14.1,15.9,13.9,16.2,13.9z"/>
	<rect x="15" y="14.7" class="st4" width="0.3" height="0.3"/>
	<rect x="14.5" y="15.2" class="st4" width="0.3" height="0.3"/>
	<rect x="13.7" y="12" class="st4" width="0.3" height="0.3"/>
</g>
<g>
	<rect x="18.5" y="13.6" class="st5" width="0.3" height="0.3"/>
	<rect x="17.7" y="15.2" class="st5" width="0.3" height="0.3"/>
</g>
</svg>
