<?xml version="1.0" encoding="utf-8"?>
<!-- Generator: Adobe Illustrator 19.2.0, SVG Export Plug-In . SVG Version: 6.00 Build 0)  -->
<svg version="1.1" id="Layer_1" xmlns="http://www.w3.org/2000/svg" xmlns:xlink="http://www.w3.org/1999/xlink" x="0px" y="0px"
	 viewBox="0 0 512 512" style="enable-background:new 0 0 512 512;" xml:space="preserve">
<style type="text/css">
	.st0{fill:#590F38;}
	.st1{fill:#47042C;}
	.st2{fill:#FFFFFF;}
	.st3{fill:#E0E0E0;}
	.st4{fill:#005C83;}
	.st5{fill:#00263F;}
	.st6{fill:#FFDC00;}
	.st7{fill:#FFC000;}
</style>
<circle class="st0" cx="256" cy="256" r="256"/>
<path class="st1" d="M512,256c0-35.4-7.2-69.2-20.2-99.9l-74.3-74.3L267.7,209.7L155,244.3L112.3,276l9.7,146.2l86.1,85.4
	c15.5,2.9,31.5,4.5,47.8,4.5C397.4,512,512,397.4,512,256z"/>
<path class="st2" d="M353.1,153l-17-17l-60.2,60.2c-37.6,11.7-131.5,42.4-154.2,65.1c-14.2,14.2-22,33-22,53s7.8,38.8,22,53
	s33,22,53,22c20,0,38.8-7.8,53-22c22.7-22.7,53.4-116.6,65.1-154.2L353.1,153z M125.7,356.3c-9.5-15.8-0.1-45.4,22.8-68.2
	c18.3-18.3,80.6-52.6,117.8-72.3L125.7,356.3z M132.8,363.4l140.6-140.6c-19.7,37.2-54.1,99.5-72.3,117.8
	C178.2,363.4,148.6,372.9,132.8,363.4z M128.8,268.4c15.3-15.3,69.2-35.7,111.3-50c-36.7,20-82.7,46.6-98.7,62.6
	c-13.8,13.8-23.6,30.2-27.6,46c-0.5,2.1-0.9,4.2-1.2,6.3c-1.8-6.1-2.8-12.5-2.8-19C109.8,297,116.6,280.7,128.8,268.4z M220.7,360.3
	c-12.3,12.3-28.6,19-45.9,19c-6.5,0-12.9-1-19-2.8c2.1-0.3,4.2-0.7,6.3-1.2c15.8-3.9,32.2-13.7,46-27.6c16-16,42.6-62,62.6-98.7
	C256.4,291.1,236,345,220.7,360.3z"/>
<path class="st3" d="M121.2,366.8c0.2,0.2,0.4,0.4,0.6,0.6c14.2,14.2,33,22,53,22c20,0,38.8-7.8,53-22
	c22.7-22.7,53.4-116.6,65.1-154.2l60.2-60.2l-9-9L121.2,366.8z M220.7,360.3c-12.3,12.3-28.6,19-45.9,19c-6.5,0-12.9-1-19-2.8
	c2.1-0.3,4.2-0.7,6.3-1.2c15.8-3.9,32.2-13.7,46-27.6c16-16,42.6-62,62.6-98.7C256.4,291.1,236,345,220.7,360.3z M201,340.6
	c-22.8,22.8-52.5,32.3-68.2,22.8l140.6-140.6C253.7,260.1,219.3,322.4,201,340.6z"/>
<path class="st4" d="M403.9,68.2l16.3,16.3c4.3,4.3,4.3,11.4,0,15.7l-83.7,83.7c-4.3,4.3-11.4,4.3-15.7,0l-16.3-16.3
	c-4.3-4.3-4.3-11.4,0-15.7l83.7-83.7C392.6,63.9,399.6,63.9,403.9,68.2z"/>
<path class="st5" d="M420.3,84.6l-8.4-8.4l-99.3,99.3l8.4,8.4c4.3,4.3,11.4,4.3,15.7,0l83.7-83.7C424.6,95.9,424.6,88.9,420.3,84.6z
	"/>
<path class="st6" d="M453.2,286.9c0,106.7-86.5,193.2-193.2,193.2S66.8,393.6,66.8,286.9H453.2z"/>
<path class="st7" d="M256.3,286.9v193.2c1.2,0,2.4,0,3.7,0c106.7,0,193.2-86.5,193.2-193.2L256.3,286.9L256.3,286.9z"/>
</svg>
